<?xml version="1.0" encoding="utf-8"?>
<!-- Generator: Adobe Illustrator 19.0.0, SVG Export Plug-In . SVG Version: 6.00 Build 0)  -->
<svg version="1.1" id="Layer_1" xmlns="http://www.w3.org/2000/svg" xmlns:xlink="http://www.w3.org/1999/xlink" x="0px" y="0px"
	 viewBox="0 0 900 500" style="enable-background:new 0 0 900 500;" xml:space="preserve">
<style type="text/css">
	.st0{fill:url(#XMLID_15_);}
	.st1{fill:#FFFFFF;}
	.st2{fill:url(#XMLID_16_);}
	.st3{fill:url(#XMLID_17_);}
</style>
<g id="XMLID_9_">
	<g id="XMLID_4_">
		<linearGradient id="XMLID_15_" gradientUnits="userSpaceOnUse" x1="336.8073" y1="250" x2="4.0961" y2="250">
			<stop  offset="0" style="stop-color:#2D88CC"/>
			<stop  offset="1" style="stop-color:#1C5480"/>
		</linearGradient>
		<circle id="XMLID_1_" class="st0" cx="170.5" cy="250" r="166.4"/>
		<path id="XMLID_6_" class="st1" d="M192.8,144h66.8l-83.9,102.4L259.3,356h-68l-54.2-75.8l-1.8,2.4V356H81.3V144h53.9v78.5
			L192.8,144z"/>
	</g>
	<g id="XMLID_5_">
		<linearGradient id="XMLID_16_" gradientUnits="userSpaceOnUse" x1="616.3556" y1="250" x2="283.6444" y2="250">
			<stop  offset="0" style="stop-color:#2D88CC"/>
			<stop  offset="1" style="stop-color:#1C5480"/>
		</linearGradient>
		<circle id="XMLID_2_" class="st2" cx="450" cy="250" r="166.4"/>
		<path id="XMLID_8_" class="st1" d="M423,356v-83.6l-74-128.5h62.3l38.3,77.9L488,144h62.9l-74.3,128.5V356H423z"/>
	</g>
	<g id="XMLID_13_">
		<linearGradient id="XMLID_17_" gradientUnits="userSpaceOnUse" x1="895.9039" y1="250" x2="563.1927" y2="250">
			<stop  offset="0" style="stop-color:#2D88CC"/>
			<stop  offset="1" style="stop-color:#1C5480"/>
		</linearGradient>
		<circle id="XMLID_3_" class="st3" cx="729.5" cy="250" r="166.4"/>
		<path id="XMLID_11_" class="st1" d="M685.3,288.9c21.3,25.8,68,27,69.5,4.2c0.6-12-18.9-18.9-36.2-21.3
			c-34.1-5.4-65.3-27-65.3-67.4c0-41.6,37.7-63.5,76.7-63.5c25.8,0,50.6,7.2,72.5,33.8l-35,27c-22.2-23.7-60.2-22.8-61.1,1.8
			c0.6,10.2,11.7,16.2,28.2,19.8c37.7,6.9,75.5,20.1,73.1,72.2c-1.8,41-44.9,63.5-83.9,63.5c-25.5,0-52.4-12.9-72.2-38.3
			L685.3,288.9z"/>
	</g>
</g>
</svg>
